<svg width="24" height="24" viewBox="0 0 24 24" fill="none" xmlns="http://www.w3.org/2000/svg">
<path d="M7 2C5.897 2 5 2.897 5 4V7.02344C5.584 6.58244 6.256 6.25256 7 6.10156V4H14V9H19V20H16V22H19C20.103 22 21 21.103 21 20V8L15 2H7ZM8 8C6.35499 8 5 9.35499 5 11C5 12.645 6.35499 14 8 14C9.64501 14 11 12.645 11 11C11 9.35499 9.64501 8 8 8ZM8 10C8.56413 10 9 10.4359 9 11C9 11.5641 8.56413 12 8 12C7.43587 12 7 11.5641 7 11C7 10.4359 7.43587 10 8 10ZM8 16C6.52355 16 5.16521 16.2326 4.08008 16.6992C3.53751 16.9325 3.05717 17.2248 2.67188 17.6309C2.28658 18.0369 2 18.6007 2 19.2168V22H14V21V19.2168C14 18.6007 13.7134 18.0369 13.3281 17.6309C12.9428 17.2248 12.4625 16.9325 11.9199 16.6992C10.8348 16.2326 9.47645 16 8 16ZM8 18C9.25455 18 10.3968 18.2223 11.1289 18.5371C11.495 18.6945 11.7515 18.8756 11.877 19.0078C12.0024 19.1401 12 19.1789 12 19.2168V20H4V19.2168C4 19.1789 3.99756 19.1401 4.12305 19.0078C4.24853 18.8756 4.50504 18.6945 4.87109 18.5371C5.60321 18.2223 6.74545 18 8 18Z" fill="#005DA5"/>
</svg>
