<svg width="210" height="30" viewBox="0 0 210 30" fill="none" xmlns="http://www.w3.org/2000/svg">
<g clip-path="url(#clip0_1239_4120)">
<path d="M144.016 28.6803C141.456 28.6803 139.016 27.7163 137.148 25.9684L138.525 24.4924C140.019 25.8907 141.968 26.657 144.016 26.657C148.451 26.657 152.057 23.0517 152.057 18.6167C152.057 14.7925 149.338 11.4734 145.594 10.7318C145.528 10.7177 145.464 10.7071 145.397 10.6965C145.305 10.6788 145.206 10.6647 145.111 10.6506L143.13 10.3822L148.585 4.76782H141.371V2.74805H153.359L147.212 9.07924C151.258 10.4317 154.079 14.2629 154.079 18.6202C154.076 24.1711 149.564 28.6803 144.016 28.6803Z" fill="#006DB7"/>
<path d="M168.652 13.3574V15.9457H168.062V13.8447H167.176L167.159 14.385C167.127 15.402 166.982 15.9846 166.374 15.9846C166.286 15.9846 166.191 15.9704 166.078 15.9422L166.114 15.4372C166.149 15.4478 166.184 15.4514 166.22 15.4514C166.523 15.4514 166.601 15.0664 166.625 14.4061L166.661 13.3574H168.652Z" fill="#006DB7"/>
<path d="M171.342 15.4655V15.9457H169.34V13.3574H171.296V13.8377H169.937V14.3991H171.137V14.8652H169.937V15.4655H171.342Z" fill="#006DB7"/>
<path d="M173.844 13.8486H173.018V15.9496H172.428V13.8486H171.605V13.3613H173.848V13.8486H173.844Z" fill="#006DB7"/>
<path d="M182.451 15.141V16.6241H181.568V15.9178H179.269V16.6241H178.387V15.141H178.521C178.973 15.1304 179.05 14.4912 179.085 13.778L179.128 12.6445H181.981V15.1375H182.451V15.141ZM179.65 15.141H181.031V13.4249H179.961L179.944 13.8451C179.926 14.3995 179.884 14.8973 179.65 15.141Z" fill="#006DB7"/>
<path d="M186.21 14.5523H183.735C183.826 14.9584 184.172 15.2091 184.67 15.2091C185.017 15.2091 185.267 15.1067 185.493 14.8913L185.998 15.4386C185.694 15.7846 185.239 15.9682 184.649 15.9682C183.519 15.9682 182.781 15.255 182.781 14.284C182.781 13.3058 183.53 12.5996 184.526 12.5996C185.486 12.5996 186.228 13.2458 186.228 14.2981C186.228 14.3687 186.217 14.4746 186.21 14.5523ZM183.72 13.9979H185.334C185.267 13.5848 184.957 13.3164 184.533 13.3164C184.098 13.3164 183.788 13.5777 183.72 13.9979Z" fill="#006DB7"/>
<path d="M186.961 12.6475H187.904V14.5931L189.496 12.6475H190.365V15.9208H189.422V13.9752L187.833 15.9208H186.957V12.6475H186.961ZM187.529 11.3516H188.15C188.158 11.6306 188.302 11.8 188.603 11.8C188.895 11.8 189.058 11.6306 189.058 11.3516H189.69C189.683 11.9836 189.319 12.2944 188.606 12.2944C187.893 12.2944 187.533 11.9836 187.529 11.3516Z" fill="#006DB7"/>
<path d="M191.016 14.284C191.016 13.2988 191.775 12.5996 192.841 12.5996C193.529 12.5996 194.07 12.8962 194.306 13.4329L193.572 13.8284C193.395 13.5177 193.134 13.3765 192.838 13.3765C192.357 13.3765 191.979 13.7119 191.979 14.284C191.979 14.856 192.357 15.1914 192.838 15.1914C193.134 15.1914 193.395 15.0572 193.572 14.743L194.306 15.1455C194.07 15.6681 193.526 15.9718 192.841 15.9718C191.775 15.9718 191.016 15.2691 191.016 14.284Z" fill="#006DB7"/>
<path d="M197.621 13.4249H196.513V15.9178H195.57V13.4249H194.461V12.6445H197.618V13.4249H197.621Z" fill="#006DB7"/>
<path d="M201.205 14.9895C201.205 15.5687 200.774 15.9217 199.873 15.9217H198.129V12.6484H199.803C200.626 12.6484 201.109 12.9592 201.109 13.4924C201.109 13.8208 200.933 14.0715 200.629 14.2092C201.01 14.3398 201.205 14.6011 201.205 14.9895ZM198.998 13.9938H199.715C200.043 13.9938 200.212 13.8737 200.212 13.6407C200.212 13.4041 200.043 13.2947 199.715 13.2947H198.998V13.9938ZM200.318 14.9154C200.318 14.6647 200.159 14.5517 199.813 14.5517H198.998V15.2756H199.795C200.142 15.2756 200.318 15.1591 200.318 14.9154Z" fill="#006DB7"/>
<path d="M205.192 12.6484L203.712 16.1231C203.394 16.914 202.946 17.1506 202.356 17.1506C202.021 17.1506 201.657 17.0411 201.445 16.8539L201.791 16.1796C201.936 16.3067 202.137 16.3878 202.328 16.3878C202.589 16.3878 202.734 16.2713 202.864 15.9818L202.875 15.95L201.459 12.652H202.437L203.356 14.873L204.281 12.652H205.192V12.6484Z" fill="#006DB7"/>
<path d="M205.648 12.6475H206.591V14.5931L208.184 12.6475H209.052V15.9208H208.109V13.9752L206.52 15.9208H205.645V12.6475H205.648ZM206.213 11.3516H206.835C206.841 11.6306 206.987 11.8 207.287 11.8C207.58 11.8 207.742 11.6306 207.742 11.3516H208.374C208.367 11.9836 208.004 12.2944 207.29 12.2944C206.577 12.2944 206.22 11.9836 206.213 11.3516Z" fill="#006DB7"/>
<path d="M179.246 19.2473H178.855V20.0454H178.512V18.1562H178.855V18.9543H179.253L179.864 18.1562H180.232L179.515 19.0637L180.281 20.0418H179.878L179.246 19.2473Z" fill="#006DB7"/>
<path d="M182.087 18.9045V20.0451H181.762V19.7944C181.65 19.9639 181.437 20.0663 181.144 20.0663C180.717 20.0663 180.445 19.8367 180.445 19.5119C180.445 19.2082 180.639 18.9611 181.205 18.9611H181.745V18.8905C181.745 18.6009 181.579 18.4349 181.239 18.4349C181.017 18.4349 180.788 18.5126 180.643 18.6362L180.502 18.3784C180.696 18.2231 180.979 18.1348 181.282 18.1348C181.794 18.1383 182.087 18.389 182.087 18.9045ZM181.745 19.466V19.2012H181.219C180.879 19.2012 180.784 19.3318 180.784 19.4943C180.784 19.6849 180.939 19.8015 181.201 19.8015C181.455 19.8015 181.66 19.6849 181.745 19.466Z" fill="#006DB7"/>
<path d="M184.416 19.2477H184.049V20.0457H183.707V19.2477H183.339L182.82 20.0457H182.414L183.064 19.0712L182.467 18.1602H182.831L183.339 18.9582H183.71V18.1602H184.052V18.9582H184.423L184.932 18.1602H185.299L184.702 19.0747L185.352 20.0457H184.946L184.416 19.2477Z" fill="#006DB7"/>
<path d="M187.647 19.7452V20.4832H187.325V20.0454H185.747V20.4832H185.422V19.7452H185.521C185.793 19.7311 185.839 19.2721 185.863 18.7954L185.891 18.1562H187.357V19.7452H187.647ZM185.959 19.7452H187.018V18.4564H186.199L186.181 18.8201C186.163 19.2121 186.128 19.5969 185.959 19.7452Z" fill="#006DB7"/>
<path d="M189.671 19.413C189.671 19.8225 189.385 20.0521 188.88 20.045L188.086 20.0415V18.1523H188.428V18.7915L188.936 18.795C189.417 18.8021 189.671 19.0245 189.671 19.413ZM189.325 19.4094C189.325 19.1587 189.166 19.0528 188.856 19.0492L188.428 19.0422V19.7837L188.856 19.7872C189.163 19.7908 189.325 19.6636 189.325 19.4094ZM189.953 18.1559H190.296V20.045H189.953V18.1559Z" fill="#006DB7"/>
<path d="M190.961 18.156H191.304V19.5295L192.462 18.156H192.773V20.045H192.43V18.6715L191.275 20.045H190.961V18.156ZM191.286 17.418H191.519C191.522 17.5945 191.65 17.711 191.844 17.711C192.038 17.711 192.169 17.598 192.172 17.418H192.409C192.402 17.7393 192.19 17.9088 191.847 17.9088C191.498 17.9123 191.289 17.7393 191.286 17.418Z" fill="#006DB7"/>
<path d="M196.311 19.7452V20.4832H195.989V20.0454H194.411V20.4832H194.086V19.7452H194.185C194.457 19.7311 194.503 19.2721 194.527 18.7954L194.556 18.1562H196.021V19.7452H196.311ZM194.619 19.7452H195.678V18.4564H194.859L194.842 18.8201C194.827 19.2121 194.792 19.5969 194.619 19.7452Z" fill="#006DB7"/>
<path d="M198.45 19.216H196.917C196.96 19.5479 197.228 19.7669 197.602 19.7669C197.825 19.7669 198.008 19.6927 198.146 19.5373L198.336 19.7598C198.168 19.9575 197.906 20.067 197.592 20.067C196.985 20.067 196.578 19.6644 196.578 19.103C196.578 18.5451 196.981 18.1426 197.525 18.1426C198.068 18.1426 198.457 18.5345 198.457 19.1136C198.457 19.1418 198.453 19.1842 198.45 19.216ZM196.921 18.9688H198.132C198.096 18.651 197.856 18.4286 197.528 18.4286C197.196 18.4286 196.956 18.6475 196.921 18.9688Z" fill="#006DB7"/>
<path d="M198.984 18.1562H199.327V18.9578H200.404V18.1562H200.746V20.0454H200.404V19.2544H199.327V20.0454H198.984V18.1562Z" fill="#006DB7"/>
<path d="M203.024 19.413C203.024 19.8225 202.738 20.0521 202.233 20.045L201.414 20.0415V18.1523H201.756V18.7915L202.286 18.795C202.767 18.8021 203.024 19.0245 203.024 19.413ZM202.675 19.4094C202.675 19.1587 202.519 19.0528 202.205 19.0492L201.756 19.0422V19.7837L202.205 19.7872C202.515 19.7908 202.675 19.6636 202.675 19.4094Z" fill="#006DB7"/>
<path d="M25.3984 14.1738H30.854V19.2056L33.873 14.1738H39.8546L35.2184 20.8016L39.9888 28.1498H33.7176L30.854 22.8391V28.1498H25.3984V14.1738Z" fill="#006DB7"/>
<path d="M24.0227 27.7126C23.1682 28.1716 21.9994 28.5706 20.361 28.5706C15.9189 28.5706 12.7656 25.6363 12.7656 21.1624C12.7656 16.0918 16.8157 13.7578 20.2833 13.7578C21.392 13.7578 22.9316 14.0368 24.0227 14.8136V19.7041C23.1858 18.6483 21.9605 18.2246 21.0036 18.2246C18.9768 18.2246 18.0057 19.6017 18.0057 21.3002C18.0057 23.0763 19.2699 24.0932 20.9859 24.0932C22.1936 24.0932 23.2459 23.5354 24.0227 22.815V27.7126Z" fill="#006DB7"/>
<path d="M5.45198 24.7074V22.61H6.11229C6.63845 22.61 7.47882 22.7089 7.47882 23.6481C7.47882 24.6262 6.6172 24.7074 6.11229 24.7074H5.45198ZM0 14.0859V28.062H8.06143C11.8432 28.062 12.6624 25.5832 12.6624 24.1672C12.6624 22.271 11.3948 20.8939 9.63986 20.5937V20.5549C10.7698 20.2159 12.0162 19.2166 12.0162 17.6417C12.0162 16.5612 11.6066 14.0859 7.69065 14.0859H0ZM5.45198 19.3967V17.4405H5.96045C6.91384 17.4405 7.1681 17.9419 7.1681 18.4186C7.1681 18.8953 6.91384 19.3967 5.96045 19.3967H5.45198Z" fill="#006DB7"/>
<path d="M71.8675 15.9536L70.3106 16.0136L70.1692 15.6322L68.6686 15.5263L68.6618 15.2474L67.0547 15.2227L67.3198 15.8017L68.0367 15.8865L67.9486 15.6993L68.5982 16.1337L69.6751 16.3773L70.392 16.402L72.1963 16.1619L71.8675 15.9536Z" fill="#56B9E9"/>
<path d="M67.899 14.5977L67.1643 14.4989C67.1643 14.4989 67.1857 14.2447 66.8998 14.1034C66.6133 13.9622 66.6806 14.0928 66.6806 14.0928L66.4014 13.888L65.8859 13.7997L65.8437 13.4148L65.1727 13.3795L65.1867 13.1888L64.6645 13.1253L64.4416 12.924L64.5127 12.7051L64.3816 12.5074L63.7572 12.2107L63.2343 12.0024L62.8884 11.6034L62.4788 11.2467L61.9492 10.7277L60.6284 10.2651L59.3748 9.33996L58.8664 9.12458L58.3297 8.85972L57.1891 8.24533L55.5119 7.30964L51.7972 5.50523L50.7378 5.0356C50.1376 4.7743 50.0387 4.63659 50.0246 4.5589C49.4808 4.43179 49.3007 4.33645 49.0182 4.05042C48.7287 4.06102 48.0896 3.69026 47.913 3.52076C47.913 3.51017 46.8184 3.19238 46.7478 3.12882C46.7442 3.06173 43.9087 2.06243 43.5627 1.97769C43.3155 1.9565 42.6305 1.82938 42.5352 1.78348C42.4186 1.78348 41.9843 1.64576 41.8077 1.62811C41.2181 1.56102 40.6531 1.46921 40.0458 1.45862C39.6114 1.45509 39.3643 1.45862 38.9829 1.36328C38.8487 1.44803 37.9589 1.28913 37.6446 1.52218C37.288 1.5363 36.4758 1.71639 36.2498 1.82585C35.7661 1.84704 34.9398 2.3767 34.6609 2.51441C34.5231 2.5815 34.3748 2.65212 34.2266 2.72274C35.1128 3.03701 36.1227 3.40777 36.1227 3.44662C36.1933 3.51017 37.2845 3.82797 37.288 3.83503C37.4645 4.00806 38.1037 4.37529 38.3932 4.36469C38.6757 4.65071 38.8593 4.74605 39.4031 4.87316C39.4172 4.95085 39.5126 5.08856 40.1129 5.34986L41.1722 5.81949L44.8868 7.6239L46.5641 8.5596L47.7046 9.17398L48.2414 9.43884L48.7499 9.65423L49.1665 9.96145L49.9857 10.2793L51.8325 10.8795L54.0606 11.7482L54.8904 12.0342L55.7273 12.2955L56.1227 12.2213L56.557 12.3697L57.0373 12.8004L57.5281 12.638L57.86 12.698L58.1249 13.044L58.2979 13.2489L58.7181 13.376L59.1348 13.429L59.6291 13.3371L60.2082 13.3866L60.413 13.7326L61.2216 13.8739L61.8004 13.9198L62.3833 13.9657L62.8284 14.174L63.238 14.6189L63.8202 14.739L65.3282 14.9579L66.6947 14.7919L67.5843 14.8343L67.899 14.5977Z" fill="#56B9E9"/>
<path d="M55.6602 16.8086L57.2667 16.8333L57.2773 17.1087L58.7745 17.2182L58.9193 17.603L60.4729 17.5395L60.8084 17.7478L59.0005 17.988L58.2837 17.9632L57.2032 17.7231L56.5535 17.2817L56.6418 17.4725L55.9249 17.3912L55.6602 16.8086Z" fill="#006DB7"/>
<path d="M55.8284 16.1469C55.8284 16.1469 55.8496 15.8926 55.5636 15.7514C55.2776 15.6066 55.3412 15.7408 55.3412 15.7408L55.0622 15.536L54.5467 15.4477L54.5043 15.0628L53.8369 15.0311L53.8546 14.8404L53.3285 14.7768L53.106 14.579L53.1766 14.3601L53.0424 14.1624L52.4174 13.8622L51.8948 13.6539L51.5488 13.262L51.1356 12.9018L50.606 12.3827L49.2854 11.9202L48.0319 10.9986L47.5234 10.7831L46.9832 10.5183L45.8461 9.90394L44.1653 8.96464L40.4542 7.16029L39.3949 6.69064C38.7946 6.42933 38.6957 6.29164 38.6815 6.21394C38.1378 6.08683 37.9577 5.99149 37.6717 5.70547C37.3857 5.7196 36.743 5.34884 36.5665 5.17582C36.5665 5.16522 35.4753 4.84743 35.4047 4.78386C35.4012 4.7203 32.5658 3.71748 32.2197 3.63273C31.969 3.61508 31.2875 3.48443 31.1922 3.44205C31.0756 3.44559 30.6413 3.30787 30.4648 3.28669C29.8751 3.2196 29.3101 3.12779 28.7027 3.1172C28.2684 3.11014 28.0248 3.1172 27.6399 3.02539C27.5022 3.11014 26.6159 2.9477 26.2981 3.18429C25.945 3.19841 25.1329 3.3785 24.9069 3.48796C24.4231 3.50562 23.5968 4.03881 23.3143 4.17652C23.0707 4.29658 22.7918 4.41663 22.5622 4.55788C22.4563 4.64262 20.9026 5.41239 20.8002 5.50774C20.8214 5.5607 19.2783 6.4788 19.1335 6.61294C19.07 6.6836 18.6568 6.84951 18.5545 6.94839C18.4485 7.05082 18.0354 7.4216 17.8942 7.48864C17.8341 7.6158 17.4422 7.75705 17.3786 7.8877C17.2868 8.01835 16.8172 8.24433 16.743 8.33262C16.7289 8.34321 16.4711 8.55505 16.2628 8.72807C16.1781 8.84109 16.0898 8.9576 16.005 9.07411C15.9026 9.11298 15.4895 9.34956 15.3835 9.43074C15.3941 9.6779 15.4118 10.0699 15.0234 9.99572L14.5678 10.2641C14.6244 10.2606 14.3278 10.6984 14.0841 11.0021C13.9393 11.1786 13.272 11.4223 13.1413 11.6024C12.873 11.9731 12.5304 12.3156 12.2656 12.6794V12.7076H12.2974C12.301 12.757 12.5552 12.75 12.5905 12.8488C12.6434 12.9936 12.4846 13.1207 12.4457 13.2478L12.4775 13.2443V13.2726C12.6823 13.2655 12.8836 13.0501 13.0495 12.9618C13.1872 12.9124 13.3285 12.8524 13.4662 12.7994C13.7133 12.6546 13.957 12.5098 14.2042 12.3616C16.0438 11.3658 17.88 10.3665 19.7197 9.36719C20.599 8.89405 21.3016 8.45268 22.2692 7.91592C22.5022 7.78882 23.385 7.19207 24.0559 7.1497C24.8998 7.09674 25.9132 7.31213 26.1851 7.42509C26.4464 7.51692 27.0855 7.84178 27.4069 7.91947C27.5057 7.95829 27.6894 8.08894 27.7317 8.08894C27.7635 8.13486 28.3708 8.23019 28.6922 8.34321C28.8016 8.4138 28.9075 8.47735 29.017 8.5409C29.5432 8.69629 30.8567 9.00352 31.3334 9.1518C31.7359 9.27541 31.9761 9.50139 32.1774 9.54376C32.4527 9.73441 32.5128 9.63554 32.8483 9.80152C33.3567 9.85447 33.671 10.0346 33.6886 10.0522C33.8476 10.1158 33.9535 10.1829 34.1124 10.2464C34.243 10.2641 34.4937 10.4583 34.5926 10.5077C34.7127 10.5325 35.539 10.7832 35.6237 10.8256C35.7614 10.8114 36.3475 11.0656 36.4217 11.1292C36.5877 11.2069 36.7748 11.2492 36.9619 11.2881L38.6498 11.9484L40.493 12.5487L42.7211 13.4173L43.5545 13.7034L44.3913 13.9611L44.7832 13.887L45.2176 14.0352L45.6978 14.4661L46.1886 14.3037L46.5205 14.3637L46.7854 14.7097L46.9549 14.918L47.3751 15.0417L47.7917 15.0946L48.2861 15.0028L48.8652 15.0487L49.07 15.3983L49.8786 15.536L50.4613 15.5819L51.0439 15.6278L51.4888 15.8326L51.8948 16.274L52.4775 16.3905L53.9888 16.613L55.3553 16.447L56.2451 16.4894L56.563 16.2492L55.8284 16.1469Z" fill="#006DB7"/>
<path d="M44.5359 27.5817C44.2746 27.7194 43.925 27.8359 43.4554 27.8359C42.6927 27.8359 42.2266 27.5711 41.8593 27.2286C41.3544 26.7449 41.1602 26.2046 41.1602 25.5584C41.1602 24.771 41.4886 24.199 41.8593 23.8529C42.2972 23.4398 42.8445 23.2773 43.4624 23.2773C43.7697 23.2773 44.1369 23.3303 44.5359 23.5457V24.538C44.1369 24.0789 43.639 24.0471 43.4801 24.0471C42.6044 24.0471 42.0359 24.771 42.0359 25.5725C42.0359 26.5401 42.781 27.0627 43.5154 27.0627C43.918 27.0627 44.2816 26.8861 44.5359 26.586V27.5817Z" fill="#006DB7"/>
<path d="M47.0276 27.7363H46.1731V24.1099H45.1914V23.3789H48.0092V24.1099H47.0276V27.7363Z" fill="#006DB7"/>
<path d="M48.8711 23.3789V27.7398H49.7256V26.1261H50.2764C50.7779 26.1261 51.1381 25.9813 51.3817 25.7412C51.7171 25.4093 51.7419 24.9361 51.7419 24.7666C51.7419 24.4524 51.65 24.0286 51.2969 23.7144C50.9756 23.4319 50.6366 23.3825 50.1458 23.3825H48.8711V23.3789ZM49.7256 24.1099H50.0187C50.2235 24.1099 50.4459 24.1205 50.6225 24.2476C50.7496 24.3394 50.8662 24.5018 50.8662 24.7419C50.8662 24.9326 50.7885 25.1268 50.6331 25.2504C50.4495 25.3917 50.2376 25.3917 50.0752 25.3917H49.7291V24.1099H49.7256Z" fill="#006DB7"/>
<path d="M55.3902 27.7359H56.3047L54.465 23.2832H53.8223L51.9297 27.7359H52.8548L53.2433 26.8213H55.0052L55.3902 27.7359ZM53.5116 26.1292L54.1401 24.5649L54.7581 26.1292H53.5116Z" fill="#006DB7"/>
<path d="M58.2459 25.4375L56.9429 23.3789H57.9634L58.7296 24.7278L59.5347 23.3789H60.5587L59.2133 25.4375L60.707 27.7363H59.6865L58.7296 26.1403L57.7233 27.7363H56.6992L58.2459 25.4375Z" fill="#006DB7"/>
<path d="M63.7839 23.2812C62.4101 23.2812 61.4531 24.2346 61.4531 25.5623C61.4531 26.89 62.4101 27.8398 63.7839 27.8398C65.1572 27.8398 66.1141 26.89 66.1141 25.5623C66.1141 24.2346 65.1572 23.2812 63.7839 23.2812ZM63.7839 27.0665C62.9329 27.0665 62.3286 26.4415 62.3286 25.5623C62.3286 24.6796 62.9329 24.051 63.7839 24.051C64.635 24.051 65.2386 24.6796 65.2386 25.5623C65.2386 26.4415 64.635 27.0665 63.7839 27.0665Z" fill="#006DB7"/>
<path d="M68.0815 25.8401H68.3956C68.5792 25.8401 68.7948 25.8401 68.9784 25.9248C69.257 26.0484 69.2992 26.285 69.2992 26.4227C69.2992 26.5922 69.2392 26.8006 69.0274 26.9241C68.837 27.0336 68.6007 27.0442 68.4452 27.0442H68.0815V25.8401ZM67.2305 23.3789V27.7398H68.6956C69.077 27.7398 69.4762 27.6763 69.8043 27.3867C70.1043 27.1183 70.1754 26.7617 70.1754 26.5039C70.1754 26.2744 70.1221 25.9354 69.8607 25.6847C69.7517 25.5823 69.5784 25.4587 69.2925 25.4128C69.4125 25.3457 69.7835 25.1162 69.7835 24.5548C69.7835 24.1876 69.6317 23.8486 69.377 23.6508C69.0243 23.3789 68.5511 23.3789 68.3111 23.3789H67.2305ZM68.0815 24.071H68.3319C68.6778 24.071 68.9852 24.2228 68.9852 24.6183C68.9852 25.1762 68.4556 25.1904 68.3252 25.1904H68.0815V24.071Z" fill="#006DB7"/>
<path d="M73.4161 23.2812C72.0429 23.2812 71.0859 24.2346 71.0859 25.5623C71.0859 26.89 72.0392 27.8398 73.4161 27.8398C74.7937 27.8398 75.747 26.89 75.747 25.5623C75.747 24.2346 74.79 23.2812 73.4161 23.2812ZM73.4161 27.0665C72.5657 27.0665 71.9614 26.4415 71.9614 25.5623C71.9614 24.6796 72.5657 24.051 73.4161 24.051C74.2672 24.051 74.8715 24.6796 74.8715 25.5623C74.8678 26.4415 74.2672 27.0665 73.4161 27.0665Z" fill="#006DB7"/>
<path d="M78.1975 21.9844C78.3353 22.3516 78.702 22.3657 78.7871 22.3657C78.8716 22.3657 79.2389 22.3516 79.3767 21.9844L79.9663 22.2209C79.7967 22.6623 79.3908 22.9518 78.7871 22.9518C78.1834 22.9518 77.7806 22.6659 77.6073 22.2209L78.1975 21.9844ZM77.7102 23.3791V26.3064L80.1218 23.2767H80.7114V27.7365H79.8567V24.7951L77.4451 27.8212H76.8555V23.3756H77.7102V23.3791Z" fill="#006DB7"/>
<path d="M84.3041 23.3789V25.2716C84.3041 25.8754 84.2301 26.2038 84.1456 26.4156C84.0109 26.744 83.7672 27.0194 83.4531 27.0054V28.7179H84.2374V27.7363H86.9209V28.7179H87.7082V27.0054H87.249V23.3789H84.3041ZM85.1307 24.1099H86.4017V27.0054H84.6396C84.7633 26.8888 84.8901 26.7299 84.9819 26.4898C85.0633 26.2815 85.1307 25.946 85.1307 25.2716V24.1099Z" fill="#006DB7"/>
<path d="M90.7247 23.2812C89.3515 23.2812 88.3945 24.2346 88.3945 25.5623C88.3945 26.89 89.3515 27.8398 90.7247 27.8398C92.1023 27.8398 93.0555 26.89 93.0555 25.5623C93.0555 24.2346 92.0986 23.2812 90.7247 23.2812ZM90.7247 27.0665C89.8737 27.0665 89.27 26.4415 89.27 25.5623C89.27 24.6796 89.8737 24.051 90.7247 24.051C91.5794 24.051 92.18 24.6796 92.18 25.5623C92.18 26.4415 91.5758 27.0665 90.7247 27.0665Z" fill="#006DB7"/>
<path d="M93.9492 27.7374L94.758 23.2988H95.3513L96.5341 26.1484L97.7696 23.2988H98.3629L99.0939 27.7374H98.2288L97.837 25.0502L96.64 27.7939H96.4031L95.2558 25.0502L94.8143 27.7374H93.9492Z" fill="#006DB7"/>
<path d="M117.35 0H116.234V30H117.35V0Z" fill="#56B9E9"/>
<path d="M179.216 21.8362C177.14 24.6858 173.782 26.5396 169.986 26.5396C163.683 26.5396 158.573 21.4301 158.573 15.1272C158.573 11.6067 160.169 8.45693 162.676 6.36654C162.74 6.31358 162.807 6.26062 162.871 6.21115C162.924 6.16878 162.976 6.12642 163.03 6.08759C164.453 5.00355 166.151 4.23731 168.037 3.90892C169.777 3.60525 171.515 3.70765 173.132 4.16316C173.146 4.16669 173.16 4.17022 173.171 4.17375C173.425 4.2479 173.679 4.32912 173.93 4.42093C173.972 4.43505 174.015 4.45624 174.057 4.47036C174.226 4.53392 174.392 4.60454 174.558 4.67516C174.668 4.7246 174.777 4.7705 174.887 4.82347C174.957 4.85878 175.028 4.89409 175.099 4.9294C175.371 5.06711 175.639 5.21189 175.9 5.37078C175.9 5.37078 175.904 5.37078 175.904 5.37432C176.907 5.98519 177.807 6.74791 178.577 7.62715L175.003 7.58478L176.582 9.24789L181.437 9.30795L181.497 4.4527L179.918 2.78957L179.88 6.04522C179.827 5.98872 179.778 5.92869 179.724 5.8722C179.668 5.8157 179.615 5.75567 179.558 5.69917C179.361 5.50144 179.159 5.30723 178.951 5.12008C178.895 5.07064 178.838 5.02474 178.782 4.9753C178.591 4.80934 178.397 4.65045 178.196 4.49508C178.16 4.46683 178.125 4.43858 178.086 4.41033C177.842 4.22672 177.595 4.05369 177.337 3.8842C177.309 3.86655 177.281 3.8489 177.256 3.83124C175.159 2.47884 172.666 1.69141 169.986 1.69141C165.667 1.69141 161.825 3.73237 159.364 6.89974C159.34 6.93152 159.312 6.96329 159.286 6.99862C159.209 7.10099 159.132 7.20697 159.054 7.31289C159.008 7.37644 158.962 7.43999 158.916 7.50354C158.852 7.59887 158.789 7.6907 158.725 7.78603C158.672 7.86372 158.623 7.94497 158.573 8.0226C158.517 8.11089 158.464 8.20272 158.407 8.2945C158.355 8.38278 158.305 8.47107 158.255 8.55935C158.206 8.64764 158.157 8.73593 158.107 8.8277C158.058 8.92303 158.008 9.01487 157.963 9.11019C157.917 9.19848 157.874 9.28676 157.832 9.37505C157.786 9.47387 157.74 9.57274 157.698 9.67517C157.659 9.76346 157.616 9.85174 157.581 9.93997C157.532 10.0565 157.489 10.173 157.444 10.2861C157.384 10.4449 157.324 10.6074 157.267 10.7698C157.232 10.8722 157.196 10.971 157.164 11.0735C157.133 11.1758 157.104 11.2818 157.073 11.3842C157.044 11.4795 157.016 11.5749 156.991 11.6702C156.963 11.7762 156.938 11.8821 156.914 11.988C156.889 12.0869 156.868 12.1823 156.847 12.2811C156.825 12.3871 156.804 12.493 156.783 12.6024C156.765 12.7048 156.744 12.8072 156.73 12.9096C156.713 13.0156 156.695 13.1179 156.681 13.2239C156.667 13.3333 156.653 13.4428 156.638 13.5523C156.627 13.6512 156.613 13.7536 156.607 13.8524C156.596 13.976 156.585 14.1031 156.578 14.2267C156.571 14.315 156.564 14.4033 156.561 14.4915C156.553 14.6681 156.55 14.8411 156.547 15.0177C156.547 15.053 156.543 15.0918 156.543 15.1272C156.543 15.1306 156.543 15.1342 156.543 15.1377C156.543 15.1413 156.543 15.1448 156.543 15.1519C156.557 22.5671 162.571 28.5699 169.986 28.5699C174.965 28.5699 179.311 25.8616 181.632 21.8362H179.216Z" fill="#006DB7"/>
</g>
<defs>
<clipPath id="clip0_1239_4120">
<rect width="209.388" height="30" fill="white"/>
</clipPath>
</defs>
</svg>
